<svg class="ratio-logo-svg" xmlns="http://www.w3.org/2000/svg" x="0px" y="0px" viewBox="0 0 336.7 150.1">
    <path class="logo-dot"
          d="M267.7,74.9c6.2,0,12.3-5.2,13.5-11.8c1.2-6.6-2.9-12-9.2-12s-12.2,5.4-13.4,12C257.5,69.7,261.5,74.9,267.7,74.9z"></path>
    <path class="logo-dot"
          d="M257.7,101.6c6.2,0,12.3-5.2,13.5-11.8c1.2-6.6-2.9-12-9.1-12c-6.2,0-12.2,5.4-13.4,12C247.5,96.4,251.5,101.6,257.7,101.6z"></path>
    <path class="logo-body"
          d="M321.8,72.9c-29.3,0-45.1,35.8-48.3,53c-0.1,0.4-0.1,0.8-0.2,1.2c-3.5,4.9-8.1,8.2-12.4,8.2c-4,0-5.6-1.3-4.8-5.5 c0.2-1.3,0.7-2.8,1.4-4.8l8.1-20.8h-20.5l-7,18h0c-3.5,7.5-9.7,13.1-15.2,13.1c-4,0-5.6-1.3-4.8-5.5c0.2-1.3,0.7-2.8,1.5-4.8 L237,80.2h8.5l2.2-6h-8.5l9.2-23.6l-21.6,3l-8.1,20.6h-4.7l-2.2,6h4.7l-16.3,42h0c-3.5,7.5-8.6,14-14.1,14c-4,0-5.4-2.2-4.6-6.4 c0.2-1.3,0.7-2.8,1.4-4.8l19.6-50.8h-20.5l-3,7.9l0.2-1c0.8-4.3-2-7.6-10.1-7.6c-16.4,0-29.8,14.2-38,29.6 c-10.2,14.4-23.2,24.6-30.7,24.6c-2.1,0-3.6-0.8-3.6-2.8c0-2.8,1.1-6.8,7.2-18.3c5.5-10.9,8.3-18.7,8.3-24.3 c0-9.4-7.4-12.5-18-14.1c21.2-3.8,44.1-29.8,44.1-50.3C138.5,5.6,131,0,115.4,0C99.7,0,92.7,3,86.3,8.2C82.5,2,71.7,0,56.2,0 C42,0,38.8,3.2,38.8,8.8c0,3.4,2.1,5.4,5.9,5.4h1.9c5.1,0,7.8,1.4,7.8,4.2c0,1.2-0.4,2.4-0.9,3.8L0,148.5h32.7l31.8-75.1 c11,1,16.5,3.6,16.5,9.7c0,7.2-1.7,13.5-9.1,27.9c-6.2,11.9-8.7,18.3-8.7,25.7c0,7.2,5.9,12.4,15.1,12.4c12.5,0,29.2-5.6,44.2-20 c-1.7,15.2,5.9,20.7,15,20.7c10.1,0,18-6.9,23.7-13.7c-0.8,9,3.4,13.7,11.4,13.7c5.8,0,14.8-1.9,24.3-13.2 c-0.2,9.2,5,13.2,12.4,13.2c5.8,0,15.6-1.9,25.6-13.4c-0.3,9.3,5,13.4,12.4,13.4c5.9,0,15.9-1.9,25.9-13.8 c1.4,9.6,8.6,13.5,18.8,13.5c17.9,0,34.7-14.6,41.7-43.3c0.9-3.7,1.9-8.9,2.5-13.2C337.7,80,333,72.9,321.8,72.9z M68.1,65.1 l16.7-39.2c3.6-8.8,9.3-12.1,14-12.1c4.5,0,7.8,2.8,7.8,8.9C106.5,44.2,89.9,59.7,68.1,65.1z M176.7,88.4l-13.1,33.8 c-3.3,8.7-10.1,13.1-14.2,13.1c-2.6,0-7.1-0.2-4.9-11.7c2.6-14,15.4-40.9,27.4-40.9C176.4,82.7,177,86.6,176.7,88.4z M325.1,90.5 c-0.4,3.9-1.9,10.1-3.2,14.5c-5.4,17.6-14.8,31.1-21.8,31.1c-5.4,0-6.8-2.2-5-12.1c2.7-14.6,16.1-42,26.2-42 C324.8,82,326,84.2,325.1,90.5z"></path>
</svg>