<svg width="448" height="332" viewBox="0 0 448 332" fill="none" xmlns="http://www.w3.org/2000/svg">
<path d="M289.349 63L174.362 63C166.982 63 161 68.9825 161 76.3623C161 83.742 166.982 89.7245 174.362 89.7245H227.192L285.416 89.7245C290.599 89.7245 295.654 91.3357 299.882 94.3351L386.945 156.107C401.107 166.155 400.964 187.225 386.667 197.08L300.687 256.345C296.514 259.221 291.566 260.761 286.498 260.761H227.192H175.016C167.77 260.761 161.896 266.635 161.896 273.881C161.896 281.126 167.77 287 175.016 287H290.419C295.762 287 300.964 285.288 305.263 282.116L421.091 196.648C434.528 186.733 434.653 166.684 421.341 156.602L304.443 68.0704C300.099 64.7805 294.799 63 289.349 63Z" fill="url(#paint0_linear)" fill-opacity="0.3"/>
<path d="M289.349 63L174.362 63C166.982 63 161 68.9825 161 76.3623C161 83.742 166.982 89.7245 174.362 89.7245H227.192L285.416 89.7245C290.599 89.7245 295.654 91.3357 299.882 94.3351L386.945 156.107C401.107 166.155 400.964 187.225 386.667 197.08L300.687 256.345C296.514 259.221 291.566 260.761 286.498 260.761H227.192H175.016C167.77 260.761 161.896 266.635 161.896 273.881C161.896 281.126 167.77 287 175.016 287H290.419C295.762 287 300.964 285.288 305.263 282.116L421.091 196.648C434.528 186.733 434.653 166.684 421.341 156.602L304.443 68.0704C300.099 64.7805 294.799 63 289.349 63Z" fill="url(#paint1_linear)" fill-opacity="0.4"/>
<path d="M289.349 46L174.362 46C166.982 46 161 51.9825 161 59.3623C161 66.742 166.982 72.7245 174.362 72.7245H227.192L285.416 72.7245C290.599 72.7245 295.654 74.3357 299.882 77.3351L386.945 139.107C401.107 149.155 400.964 170.225 386.667 180.08L300.687 239.345C296.514 242.221 291.566 243.761 286.498 243.761H227.192H175.016C167.77 243.761 161.896 249.635 161.896 256.881C161.896 264.126 167.77 270 175.016 270H290.419C295.762 270 300.964 268.288 305.263 265.116L421.091 179.648C434.528 169.733 434.653 149.684 421.341 139.602L304.443 51.0704C300.099 47.7805 294.799 46 289.349 46Z" fill="#00DEA9"/>
<path d="M289.349 46L174.362 46C166.982 46 161 51.9825 161 59.3623C161 66.742 166.982 72.7245 174.362 72.7245H227.192L285.416 72.7245C290.599 72.7245 295.654 74.3357 299.882 77.3351L386.945 139.107C401.107 149.155 400.964 170.225 386.667 180.08L300.687 239.345C296.514 242.221 291.566 243.761 286.498 243.761H227.192H175.016C167.77 243.761 161.896 249.635 161.896 256.881C161.896 264.126 167.77 270 175.016 270H290.419C295.762 270 300.964 268.288 305.263 265.116L421.091 179.648C434.528 169.733 434.653 149.684 421.341 139.602L304.443 51.0704C300.099 47.7805 294.799 46 289.349 46Z" fill="url(#paint2_linear)"/>
<path d="M164.332 17L280.75 17C288.62 17 295 23.3799 295 31.25C295 39.1201 288.62 45.5 280.75 45.5L168.885 45.5C162.237 45.5 155.863 48.1477 151.172 52.8578L50.9717 153.46C41.494 162.976 41.2282 178.28 50.3698 188.119L151.083 296.517C155.813 301.608 162.448 304.5 169.397 304.5H281.25C288.844 304.5 295 310.656 295 318.25C295 325.844 288.844 332 281.25 332H164.705C157.869 332 151.33 329.2 146.612 324.253L16.8747 188.197C7.49525 178.36 7.69241 162.833 17.3186 153.238L146.683 24.2936C151.369 19.6228 157.715 17 164.332 17Z" fill="url(#paint3_linear)" fill-opacity="0.3"/>
<path d="M164.332 17L280.75 17C288.62 17 295 23.3799 295 31.25C295 39.1201 288.62 45.5 280.75 45.5L168.885 45.5C162.237 45.5 155.863 48.1477 151.172 52.8578L50.9717 153.46C41.494 162.976 41.2282 178.28 50.3698 188.119L151.083 296.517C155.813 301.608 162.448 304.5 169.397 304.5H281.25C288.844 304.5 295 310.656 295 318.25C295 325.844 288.844 332 281.25 332H164.705C157.869 332 151.33 329.2 146.612 324.253L16.8747 188.197C7.49525 178.36 7.69241 162.833 17.3186 153.238L146.683 24.2936C151.369 19.6228 157.715 17 164.332 17Z" fill="url(#paint4_linear)" fill-opacity="0.4"/>
<path d="M164.332 0L280.75 0C288.62 0 295 6.37994 295 14.25C295 22.1201 288.62 28.5 280.75 28.5L168.885 28.5C162.237 28.5 155.863 31.1477 151.172 35.8578L50.9717 136.46C41.494 145.976 41.2282 161.28 50.3698 171.119L151.083 279.517C155.813 284.608 162.448 287.5 169.397 287.5H281.25C288.844 287.5 295 293.656 295 301.25C295 308.844 288.844 315 281.25 315H164.705C157.869 315 151.33 312.2 146.612 307.253L16.8747 171.197C7.49525 161.36 7.69241 145.833 17.3186 136.238L146.683 7.29361C151.369 2.62277 157.715 0 164.332 0Z" fill="#00DEA9"/>
<path d="M164.332 0L280.75 0C288.62 0 295 6.37994 295 14.25C295 22.1201 288.62 28.5 280.75 28.5L168.885 28.5C162.237 28.5 155.863 31.1477 151.172 35.8578L50.9717 136.46C41.494 145.976 41.2282 161.28 50.3698 171.119L151.083 279.517C155.813 284.608 162.448 287.5 169.397 287.5H281.25C288.844 287.5 295 293.656 295 301.25C295 308.844 288.844 315 281.25 315H164.705C157.869 315 151.33 312.2 146.612 307.253L16.8747 171.197C7.49525 161.36 7.69241 145.833 17.3186 136.238L146.683 7.29361C151.369 2.62277 157.715 0 164.332 0Z" fill="url(#paint5_linear)"/>
<defs>
<linearGradient id="paint0_linear" x1="304.5" y1="63" x2="304.5" y2="287" gradientUnits="userSpaceOnUse">
<stop stop-color="#00DEA9" stop-opacity="0"/>
<stop offset="1" stop-color="#00DEA9"/>
</linearGradient>
<linearGradient id="paint1_linear" x1="304.5" y1="63" x2="304.5" y2="287" gradientUnits="userSpaceOnUse">
<stop stop-color="#FF00B8"/>
<stop offset="1" stop-color="#404040" stop-opacity="0"/>
</linearGradient>
<linearGradient id="paint2_linear" x1="304.5" y1="46" x2="304.5" y2="270" gradientUnits="userSpaceOnUse">
<stop stop-color="#FF00B8"/>
<stop offset="1" stop-color="white" stop-opacity="0"/>
</linearGradient>
<linearGradient id="paint3_linear" x1="147.5" y1="17" x2="147.5" y2="332" gradientUnits="userSpaceOnUse">
<stop stop-color="#00DEA9" stop-opacity="0"/>
<stop offset="1" stop-color="#00DEA9"/>
</linearGradient>
<linearGradient id="paint4_linear" x1="147.5" y1="17" x2="147.5" y2="332" gradientUnits="userSpaceOnUse">
<stop stop-color="#FF00B8"/>
<stop offset="1" stop-color="#404040" stop-opacity="0"/>
</linearGradient>
<linearGradient id="paint5_linear" x1="147.5" y1="0" x2="147.5" y2="315" gradientUnits="userSpaceOnUse">
<stop stop-color="#FF00B8"/>
<stop offset="1" stop-color="white" stop-opacity="0"/>
</linearGradient>
</defs>
</svg>
